<svg id="logo" data-name="Layer 1" xmlns="http://www.w3.org/2000/svg" viewBox="0 0 65.89 65.74"><defs><style>.cls-1{opacity:1;}</style></defs><path class="cls-1" d="M32.37,163.44,38,169.1a4.54,4.54,0,0,0,6.42,0l5.66-5.66-8.87-8.87Z" transform="translate(-9.1 -104.69)"></path><rect class="cls-1" x="48.99" y="117.91" width="12.54" height="12.54" transform="translate(-80.72 -29.24) rotate(-45)"></rect><path class="cls-1" d="M53.06,160.55l20.6-20.6a4.54,4.54,0,0,0,0-6.42L68,127.87,44.19,151.68Z" transform="translate(-9.1 -104.69)"></path><rect class="cls-1" x="19.32" y="137.05" width="33.62" height="12.54" transform="translate(-99.86 -37.17) rotate(-45)"></rect><path class="cls-1" d="M10.43,141.48l5.66,5.66L25,138.27l-8.87-8.87-5.66,5.66A4.54,4.54,0,0,0,10.43,141.48Z" transform="translate(-9.1 -104.69)"></path><path class="cls-1" d="M51.55,111.67,45.89,106a4.54,4.54,0,0,0-6.42,0l-20.6,20.6,8.87,8.87Z" transform="translate(-9.1 -104.69)"></path></svg>